# xmcd
#
# Track frame offsets:
#   150
#   15860
#   33802
#   56752
#   80452
#   101000
#   120560
#   140472
#   157805
#   174290
#   196770
#   213547
#   234852
#   256940
#
# Disc length: 3708 seconds
#
# Revision: 0
# Processed by: cddbd v1.5.1PL2 Copyright (c) Steve Scherf et al.
# Submitted via: GXTranscoder 2.24.2965
#
DISCID=a20e7a0e
DTITLE=Gladis Night - At Last
DYEAR=1900
DGENRE=Blues
TTITLE0=Do You really want to know
TTITLE1=If I were your woman
TTITLE2=I said you lied
TTITLE3=Grandman´s hand
TTITLE4=I wanna be loved
TTITLE5=Greatest love of all
TTITLE6=Better love next time
TTITLE7=Please help me I´m falling
TTITLE8=Something blue
TTITLE9=Just take me
TTITLE10=Rose bouquet
TTITLE11=that´s why they call it love
TTITLE12=End of the road
TTITLE13=love hurts
EXTD=
EXTT0=
EXTT1=
EXTT2=
EXTT3=
EXTT4=
EXTT5=
EXTT6=
EXTT7=
EXTT8=
EXTT9=
EXTT10=
EXTT11=
EXTT12=
EXTT13=
PLAYORDER=
